<?xml version="1.0" encoding="UTF-8"?>
<svg width="480px" height="480px" viewBox="0 0 480 480" version="1.1" xmlns="http://www.w3.org/2000/svg" xmlns:xlink="http://www.w3.org/1999/xlink" xmlns:sketch="http://www.bohemiancoding.com/sketch/ns">
    <!-- Generator: Sketch 3.4.2 (15855) - http://www.bohemiancoding.com/sketch -->
    <title>iconfinder_facebook__social__media_icon_2986194</title>
    <desc>Created with Sketch.</desc>
    <defs></defs>
    <g id="Page-1" stroke="none" stroke-width="1" fill="none" fill-rule="evenodd" sketch:type="MSPage">
        <g id="iconfinder_facebook__social__media_icon_2986194" sketch:type="MSLayerGroup" transform="translate(-16.000000, -16.000000)">
            <g id="facebook__x2C__social__x2C__media_x2C__icon_x2C_" transform="translate(16.000000, 16.000000)" fill="#FFFFFF" sketch:type="MSShapeGroup">
                <path d="M418.478,0 L61.519,0 C27.718,0 0,27.719 0,61.521 L0,418.478 C0,452.282 27.718,480 61.519,480 L418.478,480 C452.281,480 480,452.282 480,418.479 L480,61.521 C480,27.719 452.281,0 418.478,0 L418.478,0 Z M311.203,214.875 L308.906,240 L261,240 L261,400 L197,400 L197,240 L165,240 L165,214.632 L165,176 L197,176 L197,146.962 C197,120.75 209.524,79.796 264.461,79.796 L314,80.021 L314,135 L277.997,135 C272.149,135 264,137.812 264,150.284 L264,176 L314.743,176 L311.203,214.875 L311.203,214.875 Z" id="Shape"></path>
            </g>
            <g id="Layer_1"></g>
        </g>
    </g>
</svg>