<?xml version="1.0" encoding="UTF-8"?>
<svg width="480px" height="480px" viewBox="0 0 480 480" version="1.1" xmlns="http://www.w3.org/2000/svg" xmlns:xlink="http://www.w3.org/1999/xlink" xmlns:sketch="http://www.bohemiancoding.com/sketch/ns">
    <!-- Generator: Sketch 3.4.2 (15855) - http://www.bohemiancoding.com/sketch -->
    <title>iconfinder_isntagram__social__media_icon_2986198</title>
    <desc>Created with Sketch.</desc>
    <defs></defs>
    <g id="Page-1" stroke="none" stroke-width="1" fill="none" fill-rule="evenodd" sketch:type="MSPage">
        <g id="iconfinder_isntagram__social__media_icon_2986198" sketch:type="MSLayerGroup" transform="translate(-16.000000, -16.000000)">
            <g id="isntagram__x2C__social__x2C__media_x2C__icon_x2C_" transform="translate(16.000000, 16.000000)" fill="#FFFFFF" sketch:type="MSShapeGroup">
                <g id="Group">
                    <path d="M418.478,0 L61.519,0 C27.718,0 0,27.72 0,61.522 L0,418.477 C0,452.281 27.718,480 61.519,480 L418.478,480 C452.281,480 480,452.281 480,418.478 L480,61.522 C480,27.72 452.281,0 418.478,0 L418.478,0 Z M400,207.124 L400,231.221 L400,338.271 C400,372.394 372.384,400 338.253,400 L141.703,400 C107.555,400 80,372.394 80,338.271 L80,231.194 L80,207.124 L80,141.701 C80,107.568 107.555,80 141.703,80 L338.253,80 C372.384,80 400,107.568 400,141.701 L400,207.124 L400,207.124 Z" id="Shape"></path>
                    <path d="M239.989,296.355 C271.057,296.355 296.388,271.053 296.388,239.979 C296.388,230.012 293.685,220.639 289.096,212.481 C288.044,210.649 286.942,208.825 285.698,207.124 C275.432,192.921 258.801,183.618 239.989,183.618 C221.166,183.618 204.527,192.921 194.268,207.124 C193.035,208.825 191.925,210.649 190.88,212.481 C186.28,220.632 183.589,229.999 183.589,239.979 C183.59,271.054 208.891,296.355 239.989,296.355 L239.989,296.355 Z" id="Shape"></path>
                    <path d="M363,171.002 L363,123.778 L363,116.693 L355.973,116.739 L308.76,116.882 L308.937,171.182 L363,171.002 Z" id="Shape"></path>
                    <path d="M324.218,216.076 C326.38,223.676 327.584,231.685 327.584,239.949 C327.584,288.254 288.288,327.558 239.989,327.558 C191.689,327.558 152.385,288.277 152.385,239.972 C152.385,231.708 153.582,223.672 155.738,216.08 C156.616,213.004 157.628,210 158.825,207 L111,207 L111,223.716 L111,338.271 C111,355.207 124.774,369 141.703,369 L338.253,369 C355.186,369 369,355.207 369,338.271 L369,223.737 L369,207 L321.116,207 C322.324,210 323.337,213.007 324.218,216.076 L324.218,216.076 Z" id="Shape"></path>
                </g>
            </g>
            <g id="Layer_1"></g>
        </g>
    </g>
</svg>