<?xml version="1.0" encoding="UTF-8"?>
<svg width="480px" height="480px" viewBox="0 0 480 480" version="1.1" xmlns="http://www.w3.org/2000/svg" xmlns:xlink="http://www.w3.org/1999/xlink" xmlns:sketch="http://www.bohemiancoding.com/sketch/ns">
    <!-- Generator: Sketch 3.4.2 (15855) - http://www.bohemiancoding.com/sketch -->
    <title>iconfinder_twitter__social__media_icons_2986205</title>
    <desc>Created with Sketch.</desc>
    <defs></defs>
    <g id="Page-1" stroke="none" stroke-width="1" fill="none" fill-rule="evenodd" sketch:type="MSPage">
        <g id="iconfinder_twitter__social__media_icons_2986205" sketch:type="MSLayerGroup" transform="translate(-16.000000, -16.000000)">
            <g id="twitter__x2C__social__x2C__media_x2C__icons_x2C_" transform="translate(16.000000, 16.000000)" fill="#FFFFFF" sketch:type="MSShapeGroup">
                <path d="M418.478,0 L61.519,0 C27.718,0 0,27.719 0,61.521 L0,418.478 C0,452.282 27.718,480 61.519,480 L418.478,480 C452.281,480 480,452.282 480,418.479 L480,61.521 C480,27.719 452.281,0 418.478,0 L418.478,0 Z M367.41,175.673 C367.522,178.438 367.577,181.258 367.577,184.058 C367.577,196.909 366.06,210.047 363.115,223.093 C346.458,296.951 283.315,368.122 180.571,368.122 C143.477,368.122 108.922,357.421 79.804,339.052 C84.958,339.661 90.182,339.966 95.511,339.966 C126.3,339.966 154.631,329.639 177.132,312.256 C148.37,311.751 124.116,293.041 115.741,267.341 C119.763,268.095 123.873,268.524 128.095,268.524 C134.127,268.524 139.903,267.714 145.442,266.242 C123.3,261.828 105.374,246.513 97.354,226.217 C94.47,218.955 92.999,211.062 92.999,202.773 L92.999,201.958 C101.999,206.813 111.868,209.724 122.624,210.065 C105.005,198.457 93.315,178.645 93.315,156.217 C93.315,144.363 96.535,133.246 102.172,123.682 C134.58,162.825 182.987,188.593 237.609,191.3 C236.514,186.528 235.921,181.627 235.921,176.554 C235.921,140.825 265.335,111.855 301.638,111.855 C320.551,111.855 337.623,119.696 349.582,132.276 C364.553,129.384 378.659,123.989 391.341,116.554 C386.411,131.684 376.019,144.363 362.437,152.365 C375.743,150.802 388.394,147.334 400.176,142.199 C391.392,155.163 380.229,166.56 367.41,175.673 L367.41,175.673 Z" id="Shape"></path>
            </g>
            <g id="Layer_1"></g>
        </g>
    </g>
</svg>