<?xml version="1.0" encoding="UTF-8"?>
<svg width="480px" height="480px" viewBox="0 0 480 480" version="1.1" xmlns="http://www.w3.org/2000/svg" xmlns:xlink="http://www.w3.org/1999/xlink" xmlns:sketch="http://www.bohemiancoding.com/sketch/ns">
    <!-- Generator: Sketch 3.4.2 (15855) - http://www.bohemiancoding.com/sketch -->
    <title>iconfinder_youtube__social_media__icons_2986210</title>
    <desc>Created with Sketch.</desc>
    <defs></defs>
    <g id="Page-1" stroke="none" stroke-width="1" fill="none" fill-rule="evenodd" sketch:type="MSPage">
        <g id="iconfinder_youtube__social_media__icons_2986210" sketch:type="MSLayerGroup" transform="translate(-16.000000, -16.000000)">
            <g id="youtube__x2C__social__x2C_media__x2C__icons_x2C_" transform="translate(16.000000, 16.000000)" fill="#FFFFFF" sketch:type="MSShapeGroup">
                <g id="Group">
                    <path d="M206.899,189.461 L206.91,211.346 L206.925,283.326 L293.446,236.567 L245.923,210.722 L206.899,189.461 Z" id="Shape"></path>
                    <path d="M418.478,0 L61.519,0 C27.718,0 0,27.717 0,61.521 L0,418.478 C0,452.286 27.718,480 61.519,480 L418.478,480 C452.281,480 480,452.286 480,418.479 L480,61.521 C480,27.717 452.281,0 418.478,0 L418.478,0 Z M400,231.932 L400,252.588 C400,279.642 396.871,306.673 396.871,306.673 C396.871,306.673 393.799,329.686 384.193,339.814 C372.016,353.141 358.377,353.192 352.145,353.983 C307.284,357.335 239.988,357.465 239.988,357.465 C239.988,357.465 156.7,356.652 131.061,354.098 C123.958,352.713 107.942,353.141 95.722,339.828 C86.142,329.707 83.114,306.673 83.114,306.673 C83.114,306.673 80,279.642 80,252.588 L80,230.513 L80,227.256 C80,200.228 83.116,173.199 83.116,173.199 C83.116,173.199 86.194,150.169 95.774,140.03 C107.995,126.727 121.602,126.888 127.863,126.137 C172.677,122.76 239.924,123 239.924,123 L240.072,123 C240.072,123 307.306,122.76 352.168,126.116 C358.399,126.888 372.061,126.848 384.237,140.151 C393.842,150.267 396.871,173.249 396.871,173.249 C396.871,173.249 400,200.228 400,227.256 L400,231.932 L400,231.932 Z" id="Shape"></path>
                </g>
            </g>
            <g id="Layer_1"></g>
        </g>
    </g>
</svg>